<svg xmlns="http://www.w3.org/2000/svg" viewBox="0 0 1920 1080" preserveAspectRatio="xMidYMid slice">
  <defs>
    <linearGradient id="sky" x1="0" y1="0" x2="0" y2="1">
      <stop offset="0%" stop-color="#83d3ff"/>
      <stop offset="100%" stop-color="#d9f3ff"/>
    </linearGradient>
    <filter id="crayon" x="-20%" y="-20%" width="140%" height="140%">
      <feTurbulence type="fractalNoise" baseFrequency="0.9" numOctaves="1" seed="7"/>
      <feDisplacementMap in="SourceGraphic" scale="2.8"/>
    </filter>
  </defs>

  <rect width="1920" height="1080" fill="url(#sky)"/>

  <g opacity="0.28" stroke="#ffffff" stroke-width="3" filter="url(#crayon)">
    <path d="M0 140 C280 100 510 170 790 130 C1060 90 1300 165 1600 118 C1760 96 1880 120 1920 116" fill="none"/>
    <path d="M0 200 C260 165 540 230 800 190 C1080 145 1320 220 1600 172 C1750 149 1850 176 1920 168" fill="none"/>
    <path d="M0 260 C260 225 560 300 850 258 C1080 220 1320 280 1600 240 C1750 218 1860 250 1920 236" fill="none"/>
  </g>

  <g filter="url(#crayon)">
    <circle cx="1640" cy="170" r="95" fill="#ffd84d" stroke="#e8a72a" stroke-width="8"/>
    <g stroke="#ffb400" stroke-width="7" stroke-linecap="round">
      <line x1="1640" y1="38" x2="1640" y2="0"/>
      <line x1="1640" y1="340" x2="1640" y2="300"/>
      <line x1="1508" y1="170" x2="1468" y2="170"/>
      <line x1="1772" y1="170" x2="1812" y2="170"/>
      <line x1="1550" y1="80" x2="1520" y2="50"/>
      <line x1="1730" y1="260" x2="1760" y2="290"/>
      <line x1="1730" y1="80" x2="1760" y2="50"/>
      <line x1="1550" y1="260" x2="1520" y2="290"/>
    </g>
  </g>

  <g filter="url(#crayon)" fill="#ffffff" stroke="#4f7bff" stroke-width="6">
    <path d="M170 270c-44 0-79-31-79-70s35-70 79-70c18 0 35 5 49 15c15-26 44-42 77-42c50 0 90 37 90 83v4c35 6 61 34 61 68c0 39-35 70-78 70z"/>
    <path d="M730 225c-34 0-62-23-62-55s28-55 62-55c13 0 26 3 36 10c12-21 35-33 61-33c40 0 72 29 72 66v3c28 4 49 27 49 53c0 30-28 55-63 55z"/>
    <path d="M1080 305c-36 0-65-24-65-57s29-57 65-57c14 0 27 4 38 11c12-20 36-32 62-32c41 0 74 30 74 67v4c29 4 51 27 51 54c0 31-29 57-65 57z"/>
  </g>

  <g opacity="0.95" filter="url(#crayon)">
    <path d="M0 865 C360 760 700 920 1050 845 C1380 775 1670 900 1920 830 L1920 1080 L0 1080 Z" fill="#7ed98f"/>
    <path d="M0 920 C300 860 650 980 980 925 C1350 865 1600 980 1920 910 L1920 1080 L0 1080 Z" fill="#5dc67d"/>
  </g>

  <g filter="url(#crayon)" stroke-linecap="round" stroke-linejoin="round">
    <path d="M1230 790 l100 -50 l95 52 l-98 42 z" fill="#ff7f8f" stroke="#2f2a3b" stroke-width="6"/>
    <rect x="1270" y="792" width="120" height="95" rx="8" fill="#fff4a8" stroke="#2f2a3b" stroke-width="6"/>
    <rect x="1315" y="835" width="28" height="52" fill="#8fd2ff" stroke="#2f2a3b" stroke-width="5"/>
  </g>

  <g fill="none" stroke="#ffffff" stroke-width="5" opacity="0.8" filter="url(#crayon)">
    <path d="M90 620 q26 -36 52 0 q26 -36 52 0"/>
    <path d="M490 700 q26 -36 52 0 q26 -36 52 0"/>
    <path d="M1680 690 q26 -36 52 0 q26 -36 52 0"/>
  </g>
</svg>
