<svg xmlns="http://www.w3.org/2000/svg" viewBox="0 0 1920 1080" preserveAspectRatio="xMidYMid slice">
  <defs>
    <linearGradient id="sky" x1="0" y1="0" x2="0" y2="1">
      <stop offset="0%" stop-color="#7ccfff"/>
      <stop offset="65%" stop-color="#bde8ff"/>
      <stop offset="100%" stop-color="#e8f9ff"/>
    </linearGradient>
    <filter id="crayon" x="-20%" y="-20%" width="140%" height="140%">
      <feTurbulence type="fractalNoise" baseFrequency="0.8" numOctaves="1" seed="12"/>
      <feDisplacementMap in="SourceGraphic" scale="2"/>
    </filter>
  </defs>

  <rect width="1920" height="1080" fill="url(#sky)"/>

  <g opacity="0.25" stroke="#ffffff" stroke-width="3" filter="url(#crayon)">
    <path d="M0 120 C300 90 520 170 840 130 C1150 92 1430 165 1920 120" fill="none"/>
    <path d="M0 185 C300 152 580 238 900 198 C1240 156 1500 232 1920 188" fill="none"/>
  </g>

  <g filter="url(#crayon)">
    <circle cx="260" cy="160" r="88" fill="#ffd84d" stroke="#efb12a" stroke-width="8"/>
    <g stroke="#ffbd28" stroke-width="6" stroke-linecap="round">
      <line x1="260" y1="20" x2="260" y2="0"/>
      <line x1="260" y1="320" x2="260" y2="300"/>
      <line x1="120" y1="160" x2="100" y2="160"/>
      <line x1="420" y1="160" x2="440" y2="160"/>
      <line x1="168" y1="68" x2="152" y2="52"/>
      <line x1="352" y1="252" x2="368" y2="268"/>
      <line x1="352" y1="68" x2="368" y2="52"/>
      <line x1="168" y1="252" x2="152" y2="268"/>
    </g>
  </g>

  <g fill="#ffffff" stroke="#4f7bff" stroke-width="6" filter="url(#crayon)">
    <path d="M470 235c-45 0-80-31-80-69s35-69 80-69c18 0 34 5 48 14c16-24 43-39 74-39c47 0 86 35 86 78v4c32 5 56 31 56 63c0 35-32 64-72 64z"/>
    <path d="M980 180c-38 0-69-26-69-58s31-58 69-58c15 0 29 4 40 12c13-20 36-33 63-33c40 0 73 29 73 66v3c27 4 48 26 48 52c0 30-28 55-62 55z"/>
    <path d="M1430 255c-42 0-75-30-75-66s33-66 75-66c17 0 32 5 45 14c15-23 41-37 71-37c45 0 82 34 82 75v4c30 5 53 30 53 61c0 35-32 65-72 65z"/>
  </g>

  <g filter="url(#crayon)">
    <path d="M0 790 C320 710 660 850 1030 785 C1370 725 1630 850 1920 780 L1920 1080 L0 1080 Z" fill="#8adf9a"/>
    <path d="M0 860 C280 820 620 920 980 870 C1320 820 1650 920 1920 860 L1920 1080 L0 1080 Z" fill="#66cb84"/>
  </g>

  <g filter="url(#crayon)" stroke="#2f2a3b" stroke-width="6" stroke-linejoin="round">
    <rect x="1360" y="650" width="190" height="130" rx="12" fill="#fff2b8"/>
    <polygon points="1350,652 1458,588 1562,654" fill="#ff7f8f"/>
    <rect x="1438" y="718" width="36" height="62" fill="#8dd3ff"/>

    <rect x="1160" y="690" width="150" height="100" rx="10" fill="#ffe18e"/>
    <polygon points="1152,692 1235,640 1318,692" fill="#ff9f63"/>
    <rect x="1218" y="742" width="30" height="48" fill="#a2e0ff"/>
  </g>

  <rect x="820" y="235" width="880" height="210" rx="28" fill="rgba(255,255,255,0.35)"/>

  <g opacity="0.5" stroke="#ffffff" stroke-width="5" fill="none" filter="url(#crayon)">
    <path d="M88 610 q24 -30 48 0 q24 -30 48 0"/>
    <path d="M540 660 q24 -30 48 0 q24 -30 48 0"/>
    <path d="M1720 640 q24 -30 48 0 q24 -30 48 0"/>
  </g>
</svg>
